<svg width="1299" height="735" viewBox="0 0 1299 735" fill="none" xmlns="http://www.w3.org/2000/svg">
<path fill-rule="evenodd" clip-rule="evenodd" d="M618.651 0.508874C1016.13 -8.95648 1372.8 114.734 1482.03 278.88C1581.08 427.726 1360.29 574.046 1055.5 656.987C805.254 725.086 493.752 689.036 258.137 611.936C41.7215 541.119 -59.3992 427.168 7.32922 313.998C93.4147 167.998 267.985 8.85947 618.651 0.508874Z" fill="#EAFFD0"/>
<path d="M503.5 734.957C526.949 734.957 545.957 715.948 545.957 692.5C545.957 669.051 526.949 650.042 503.5 650.042C480.051 650.042 461.043 669.051 461.043 692.5C461.043 715.948 480.051 734.957 503.5 734.957Z" fill="#B7CC9F"/>
<path d="M503.5 733.739C526.276 733.739 544.739 715.276 544.739 692.5C544.739 669.724 526.276 651.261 503.5 651.261C480.724 651.261 462.261 669.724 462.261 692.5C462.261 715.276 480.724 733.739 503.5 733.739Z" fill="white"/>
<path d="M503.5 714.26C515.518 714.26 525.26 704.518 525.26 692.5C525.26 680.482 515.518 670.74 503.5 670.74C491.482 670.74 481.74 680.482 481.74 692.5C481.74 704.518 491.482 714.26 503.5 714.26Z" fill="white"/>
<path d="M526.167 659.931H529.213V725.282H526.167V659.931ZM530.998 662.665H532.839V721.655H530.998V662.665Z" fill="white"/>
<path d="M520.783 675.217C516.212 670.648 510.013 668.082 503.55 668.082C497.086 668.082 490.888 670.648 486.316 675.217C481.747 679.788 479.181 685.987 479.181 692.45C479.181 698.914 481.747 705.112 486.316 709.684C490.886 714.244 497.079 716.805 503.535 716.805C509.992 716.805 516.184 714.244 520.755 709.684C525.319 705.113 527.883 698.917 527.883 692.458C527.883 685.998 525.319 679.802 520.755 675.231C520.755 675.231 520.798 675.231 520.783 675.217V675.217ZM505.342 671.845C509.552 672.221 513.547 673.877 516.788 676.591L508.288 685.162C507.425 684.588 506.465 684.175 505.455 683.943L505.342 671.845ZM501.658 671.845V684C500.648 684.232 499.688 684.645 498.825 685.218L490.325 676.648C493.528 673.934 497.481 672.26 501.658 671.845V671.845ZM487.591 679.212L496.162 687.712C495.588 688.575 495.175 689.535 494.943 690.545H482.845C483.243 686.374 484.898 682.422 487.591 679.212V679.212ZM482.845 694.342H495C495.232 695.352 495.645 696.312 496.218 697.175L487.648 705.675C484.937 702.47 483.262 698.518 482.845 694.342V694.342ZM501.658 713.155C497.448 712.779 493.453 711.123 490.212 708.409L498.712 699.909C499.575 700.483 500.535 700.896 501.545 701.128L501.658 713.155ZM498.443 692.5C498.443 691.5 498.739 690.522 499.295 689.69C499.851 688.859 500.64 688.21 501.565 687.828C502.489 687.445 503.506 687.345 504.487 687.54C505.468 687.735 506.369 688.217 507.076 688.924C507.784 689.631 508.265 690.532 508.46 691.513C508.655 692.494 508.555 693.511 508.173 694.435C507.79 695.36 507.142 696.149 506.31 696.705C505.478 697.261 504.5 697.558 503.5 697.558C502.159 697.558 500.872 697.025 499.924 696.076C498.975 695.128 498.443 693.841 498.443 692.5ZM505.342 713.155V701C506.352 700.768 507.312 700.356 508.175 699.782L516.675 708.282C513.48 711.02 509.527 712.72 505.342 713.155ZM519.409 705.788L510.909 697.288C511.483 696.425 511.896 695.465 512.128 694.455H524.226C523.807 698.634 522.127 702.587 519.409 705.788V705.788ZM512 690.658C511.768 689.648 511.355 688.688 510.782 687.825L519.282 679.325C521.995 682.566 523.652 686.561 524.028 690.772L512 690.658Z" fill="#B7CC9F"/>
<path d="M503.5 650C495.094 650 486.877 652.493 479.888 657.163C472.899 661.832 467.452 668.47 464.235 676.236C461.018 684.002 460.177 692.547 461.817 700.791C463.457 709.036 467.504 716.608 473.448 722.552C479.392 728.496 486.964 732.543 495.209 734.183C503.453 735.823 511.998 734.982 519.764 731.765C527.53 728.548 534.167 723.101 538.837 716.112C543.507 709.123 546 700.906 546 692.5C546 681.228 541.522 670.418 533.552 662.448C525.582 654.478 514.772 650 503.5 650V650ZM503.5 731.217C495.832 731.217 488.337 728.943 481.962 724.682C475.587 720.421 470.619 714.365 467.686 707.28C464.754 700.196 463.989 692.4 465.488 684.88C466.987 677.36 470.683 670.454 476.108 665.035C481.533 659.616 488.443 655.928 495.964 654.437C503.486 652.946 511.281 653.72 518.362 656.66C525.444 659.6 531.495 664.575 535.748 670.955C540.002 677.334 542.268 684.832 542.26 692.5C542.249 702.776 538.162 712.629 530.895 719.895C523.629 727.161 513.776 731.249 503.5 731.26V731.217Z" fill="#B7CC9F"/>
<path d="M987.5 734.957C1010.95 734.957 1029.96 715.948 1029.96 692.5C1029.96 669.051 1010.95 650.042 987.5 650.042C964.051 650.042 945.043 669.051 945.043 692.5C945.043 715.948 964.051 734.957 987.5 734.957Z" fill="#B7CC9F"/>
<path d="M987.5 733.739C1010.28 733.739 1028.74 715.276 1028.74 692.5C1028.74 669.724 1010.28 651.261 987.5 651.261C964.724 651.261 946.261 669.724 946.261 692.5C946.261 715.276 964.724 733.739 987.5 733.739Z" fill="white"/>
<path d="M987.5 714.26C999.518 714.26 1009.26 704.518 1009.26 692.5C1009.26 680.482 999.518 670.74 987.5 670.74C975.482 670.74 965.74 680.482 965.74 692.5C965.74 704.518 975.482 714.26 987.5 714.26Z" fill="#F3F3F6"/>
<path d="M1010.17 659.931H1013.21V725.282H1010.17V659.931ZM1015 662.665H1016.84V721.655H1015V662.665Z" fill="#F3F3F6"/>
<path d="M1004.78 675.217C1000.21 670.648 994.013 668.082 987.55 668.082C981.086 668.082 974.888 670.648 970.316 675.217C965.747 679.788 963.181 685.987 963.181 692.45C963.181 698.914 965.747 705.112 970.316 709.684C974.886 714.244 981.079 716.805 987.535 716.805C993.992 716.805 1000.18 714.244 1004.76 709.684C1009.32 705.113 1011.88 698.917 1011.88 692.458C1011.88 685.998 1009.32 679.802 1004.76 675.231C1004.76 675.231 1004.8 675.231 1004.78 675.217V675.217ZM989.342 671.845C993.552 672.221 997.547 673.877 1000.79 676.591L992.288 685.162C991.425 684.588 990.465 684.175 989.455 683.943L989.342 671.845ZM985.658 671.845V684C984.648 684.232 983.688 684.645 982.825 685.218L974.325 676.648C977.528 673.934 981.481 672.26 985.658 671.845V671.845ZM971.591 679.212L980.162 687.712C979.588 688.575 979.175 689.535 978.943 690.545H966.845C967.243 686.374 968.898 682.422 971.591 679.212V679.212ZM966.845 694.342H979C979.232 695.352 979.645 696.312 980.218 697.175L971.648 705.675C968.937 702.47 967.262 698.518 966.845 694.342V694.342ZM985.658 713.155C981.448 712.779 977.453 711.123 974.212 708.409L982.712 699.909C983.575 700.483 984.535 700.896 985.545 701.128L985.658 713.155ZM982.443 692.5C982.443 691.5 982.739 690.522 983.295 689.69C983.851 688.859 984.64 688.21 985.565 687.828C986.489 687.445 987.506 687.345 988.487 687.54C989.468 687.735 990.369 688.217 991.076 688.924C991.784 689.631 992.265 690.532 992.46 691.513C992.655 692.494 992.555 693.511 992.173 694.435C991.79 695.36 991.142 696.149 990.31 696.705C989.478 697.261 988.5 697.558 987.5 697.558C986.159 697.558 984.872 697.025 983.924 696.076C982.975 695.128 982.443 693.841 982.443 692.5ZM989.342 713.155V701C990.352 700.768 991.312 700.356 992.175 699.782L1000.68 708.282C997.48 711.02 993.527 712.72 989.342 713.155ZM1003.41 705.788L994.909 697.288C995.483 696.425 995.896 695.465 996.128 694.455H1008.23C1007.81 698.634 1006.13 702.587 1003.41 705.788V705.788ZM996 690.658C995.768 689.648 995.355 688.688 994.782 687.825L1003.28 679.325C1006 682.566 1007.65 686.561 1008.03 690.772L996 690.658Z" fill="#B7CC9F"/>
<path d="M987.5 650C979.094 650 970.877 652.493 963.888 657.163C956.899 661.832 951.452 668.47 948.235 676.236C945.018 684.002 944.177 692.547 945.817 700.791C947.457 709.036 951.504 716.608 957.448 722.552C963.392 728.496 970.964 732.543 979.209 734.183C987.453 735.823 995.998 734.982 1003.76 731.765C1011.53 728.548 1018.17 723.101 1022.84 716.112C1027.51 709.123 1030 700.906 1030 692.5C1030 681.228 1025.52 670.418 1017.55 662.448C1009.58 654.478 998.772 650 987.5 650V650ZM987.5 731.217C979.832 731.217 972.337 728.943 965.962 724.682C959.587 720.421 954.619 714.365 951.686 707.28C948.754 700.196 947.989 692.4 949.488 684.88C950.987 677.36 954.683 670.454 960.108 665.035C965.533 659.616 972.443 655.928 979.964 654.437C987.486 652.946 995.281 653.72 1002.36 656.66C1009.44 659.6 1015.49 664.575 1019.75 670.955C1024 677.334 1026.27 684.832 1026.26 692.5C1026.25 702.776 1022.16 712.629 1014.9 719.895C1007.63 727.161 997.776 731.249 987.5 731.26V731.217Z" fill="#B7CC9F"/>
</svg>
