<svg width="70" height="53" viewBox="0 0 70 53" fill="none" xmlns="http://www.w3.org/2000/svg">
<path d="M54.9476 16.0175H29.1707V28.7666H54.9476V16.0175Z" fill="url(#paint0_linear_4_531)"/>
<path d="M45.9745 0H14.2278V12.749H45.9745V0Z" fill="url(#paint1_linear_4_531)"/>
<path d="M70.0001 10.1963L61.7418 0H31.6101L35.4775 4.7612C35.4928 4.77953 35.5 4.79385 35.5145 4.81219L41.9528 12.749L44.6051 16.0152L54.9478 28.7643L62.0533 20C62.0605 19.9954 62.0605 19.9862 62.0677 19.9817L65.7888 15.3878C65.7965 15.3825 65.8016 15.3759 65.8033 15.3689L70.0001 10.1963Z" fill="url(#paint2_linear_4_531)"/>
<path d="M49.9518 34.9324L44.9488 28.7667L34.6061 16.0177L31.9466 12.7515L21.6039 0.00244141H7.8822L0.0978394 9.59415L4.79211 15.3879C4.79933 15.3971 4.81376 15.4108 4.82098 15.4206L35.2912 53.0001L40.0758 47.1095C40.0902 47.086 40.1047 47.0677 40.12 47.0442L47.0495 38.5028C47.0621 38.4915 47.0719 38.4789 47.0784 38.4656L49.9518 34.9324Z" fill="url(#paint3_linear_4_531)"/>
<g style="mix-blend-mode:screen" opacity="0.6">
<path d="M40.1222 47.0441C39.2574 48.0113 38.4004 48.9854 37.5512 49.9665L35.3097 52.5514L31.8955 48.1574C30.6795 46.5771 29.4274 45.0007 28.1744 43.4289L24.4027 38.7147L20.586 34.016L16.7258 29.3338C15.4367 27.7718 14.1178 26.2189 12.7998 24.6655C11.4818 23.112 10.1818 21.5552 8.844 20.0114C7.50343 18.4821 6.19263 16.9429 4.82227 15.4227L35.2916 53L40.0762 47.1094C40.0924 47.0859 40.1069 47.0693 40.1222 47.0441Z" fill="white"/>
</g>
<g style="mix-blend-mode:multiply" opacity="0.35">
<path d="M44.9501 28.7665H45.4331L43.3161 26.0516L39.8442 21.6623L36.3289 17.2867L35.2908 16.0175H34.6029L31.9434 12.7513H32.6322L29.1891 8.57113C26.842 5.69804 24.3919 2.85703 21.9816 0.0022583H10.1945C11.5351 0.0395044 12.8757 0.067009 14.2235 0.0905026L15.9008 0.118582C17.7324 0.150671 19.5632 0.192498 21.3948 0.211408C23.658 3.10801 25.8779 6.01891 28.1853 8.8966L31.2763 12.7513L31.6933 13.2767L33.9132 16.0198L35.2239 17.6471L38.7988 22.0021L42.4026 26.3495L44.4464 28.7671L46.065 30.6781C47.2686 32.1011 48.487 33.5208 49.7202 34.9373C48.8265 36.1086 47.945 37.2848 47.0761 38.466L49.9477 34.9327L44.9501 28.7665Z" fill="black"/>
</g>
<g style="mix-blend-mode:screen" opacity="0.4">
<path d="M62.0535 20.0023C61.3915 20.709 60.7517 21.4172 60.1343 22.127L58.2223 24.2844C57.1234 25.545 56.0367 26.8081 54.9625 28.0738C54.9552 28.0692 54.9552 28.06 54.948 28.0554C53.5271 26.2283 52.0827 24.4057 50.6149 22.5877L48.1829 19.5885L45.722 16.594C45.5604 16.4037 45.3997 16.2083 45.2381 16.0175C44.3354 14.9249 43.42 13.8362 42.492 12.7513C41.898 12.0494 41.2976 11.352 40.6973 10.6495C39.8397 9.6639 38.9902 8.67831 38.111 7.69731C37.2317 6.7163 36.375 5.7353 35.4741 4.76346C35.4894 4.78179 35.4966 4.79611 35.5111 4.81445L41.9494 12.7513L44.6017 16.0175L54.9444 28.7665L62.0535 20.0023Z" fill="white"/>
</g>
<g style="mix-blend-mode:multiply" opacity="0.35">
<path d="M70 10.1963L61.7418 0H39.1326C41.0157 0.0790762 42.8979 0.114603 44.7801 0.176488C46.6705 0.222903 48.5527 0.264731 50.4349 0.29109C52.3171 0.317449 54.2002 0.342092 56.0825 0.356417C57.841 0.379338 59.5914 0.379336 61.3572 0.38392C61.9792 1.1701 62.6165 1.94654 63.2529 2.72297L65.3482 5.26602C66.7249 6.91688 68.1241 8.56717 69.5451 10.2037C68.9131 11.0409 68.293 11.8781 67.6845 12.725C67.0526 13.6086 66.4026 14.4778 65.8023 15.3706L70 10.1963Z" fill="black"/>
</g>
<g style="mix-blend-mode:overlay" opacity="0.16">
<path d="M67.5316 10.1963L62.3751 3.83575C59.8772 8.94536 56.0974 15.4594 51.0358 20.8996L54.9473 25.721L60.0307 19.4487L60.148 19.2195L60.2798 19.1405L67.5316 10.1963Z" fill="white"/>
</g>
<g style="mix-blend-mode:overlay" opacity="0.3">
<path d="M47.4826 34.9322L42.0255 28.2039C35.5258 31.8958 27.6909 33.1278 18.5416 29.2966L35.291 49.955L38.0895 46.514L38.1266 46.4487L38.1627 46.4069L45.1219 37.8288L47.4826 34.9322Z" fill="white"/>
</g>
<defs>
<linearGradient id="paint0_linear_4_531" x1="-90.0991" y1="244.506" x2="-64.3222" y2="244.506" gradientUnits="userSpaceOnUse">
<stop stop-color="#FC7300"/>
<stop offset="1" stop-color="#F8007A"/>
</linearGradient>
<linearGradient id="paint1_linear_4_531" x1="-105.045" y1="260.526" x2="-73.298" y2="260.526" gradientUnits="userSpaceOnUse">
<stop stop-color="#FC7300"/>
<stop offset="1" stop-color="#F8007A"/>
</linearGradient>
<linearGradient id="paint2_linear_4_531" x1="-68.4727" y1="267.968" x2="-68.4727" y2="240.096" gradientUnits="userSpaceOnUse">
<stop stop-color="#EB643F"/>
<stop offset="1" stop-color="#964C9A"/>
</linearGradient>
<linearGradient id="paint3_linear_4_531" x1="-94.2261" y1="215.438" x2="-94.2261" y2="266.581" gradientUnits="userSpaceOnUse">
<stop stop-color="#EB643F"/>
<stop offset="1" stop-color="#964C9A"/>
</linearGradient>
</defs>
</svg>
